<svg width="370" height="84" viewBox="0 0 370 84" fill="none" xmlns="http://www.w3.org/2000/svg">
<g clip-path="url(#clip0_53_617)">
<path d="M80.6418 41.5183C80.2831 49.5876 72.7159 54.4202 67.0853 59.0377C61.634 63.5207 57.8772 69.1692 53.0805 74.2798C46.7236 81.0132 39.0398 82.5285 31.9029 75.9385C26.8013 71.2314 23.3046 65.1076 18.0236 60.5529C12.7427 55.9982 4.99611 51.587 3.08637 44.4322C0.898677 36.2552 8.31351 30.3646 13.9441 25.8547C19.5747 21.3449 23.6811 16.4136 28.2807 11.034C33.5795 4.75789 40.6806 -0.415463 48.6603 4.87444C55.2592 9.24086 58.9801 16.9426 64.8886 22.1518C70.9406 27.4776 80.2383 32.5075 80.6418 41.5183C80.7225 43.2397 83.4122 43.2487 83.3316 41.5183C82.946 32.9737 76.0243 27.7914 69.8826 22.8332C63.0865 17.3102 58.72 9.65329 52.0494 4.10337C46.3022 -0.684441 39.1384 -1.51827 32.8802 2.85711C25.8599 7.77941 21.7624 15.8667 15.2442 21.3538C9.50598 26.1596 1.76837 31.0102 0.244163 38.945C-1.31591 47.113 4.88852 53.2278 10.6447 57.9528C13.8724 60.6426 17.2257 63.0993 20.032 66.2194C22.8383 69.3396 25.4116 73.0066 28.3524 76.1447C33.4182 81.5333 40.3309 85.1914 47.6381 81.865C56.111 77.9648 60.3698 68.3712 67.2198 62.4537C73.9263 56.6259 82.8922 51.3808 83.3316 41.5183C83.4122 39.7878 80.7225 39.7878 80.6418 41.5183Z" fill="url(#paint0_linear_53_617)"/>
<path d="M109.762 54.0753H126.174V60.1914H103V12.144H109.762V54.0753ZM148.328 60.837C138.508 60.837 131.1 54.1433 131.1 43.3379C131.1 32.5667 138.44 25.873 148.328 25.873C158.216 25.873 165.521 32.5667 165.521 43.3379C165.521 54.1433 158.182 60.837 148.328 60.837ZM148.26 55.4685C154.41 55.4685 159.065 50.7114 159.065 43.3381C159.065 35.9986 154.41 31.2415 148.26 31.2415C142.178 31.2415 137.59 35.9986 137.59 43.3381C137.59 50.7114 142.178 55.4685 148.26 55.4685ZM195.388 26.5523H202.252L182.511 76.0263H175.783L182.715 59.3428L169.497 26.5534H176.7L185.977 52.0374L195.388 26.5523ZM216.829 60.837C211.291 60.837 206.533 58.1187 206.533 51.6287C206.533 44.5951 212.106 42.2847 219.31 41.0273L224.61 40.1098C226.751 39.7021 227.668 38.6827 227.668 37.0178C227.668 32.3967 224.202 30.7656 220.533 30.7656C216.659 30.7656 213.465 32.4985 212.955 36.9158L207.077 35.7266C208.164 29.1007 213.091 25.9407 220.838 25.9407C227.6 25.9407 233.954 28.625 233.954 37.6632V51.2887C233.954 54.7545 234.94 55.6038 237.318 55.6038H237.828V60.1911H234.668C231.134 60.1911 228.823 58.798 228.144 55.672H227.838C225.154 59.3759 220.941 60.837 216.829 60.837ZM218.324 55.6383C224.033 55.6383 228.144 51.289 228.144 44.1534L219.344 45.9542C215.164 46.6678 212.888 48.0609 212.888 51.1191C212.888 54.3131 215.3 55.6383 218.324 55.6383ZM245.915 60.1914V8H252.473V60.1914H245.915ZM267.491 19.1098C265.181 19.1098 263.21 17.207 263.21 14.8625C263.21 12.518 265.181 10.6492 267.491 10.6492C269.768 10.6492 271.705 12.5181 271.705 14.8625C271.705 17.2069 269.768 19.1098 267.491 19.1098ZM264.161 60.1914V26.5523H270.72V60.1914H264.161ZM317.746 25.8728C324.202 25.8728 328.721 29.6786 328.721 36.7119V60.1911H322.197V38.4447C322.197 33.4837 319.275 31.309 315.912 31.309C311.97 31.309 308.912 33.8235 308.912 39.7018V60.1911H302.286V38.6826C302.286 33.586 299.398 31.3094 295.898 31.3094C292.059 31.3094 288.899 33.8238 288.899 39.9401V60.1914H282.409V26.5523H288.899V30.8338C290.903 27.6737 294.165 25.8728 298.209 25.8728C302.592 25.8728 306.126 27.7416 307.825 31.3094C309.932 27.7416 313.431 25.8728 317.746 25.8728ZM369.666 42.7264L369.564 44.4594H343.502C343.74 51.9008 348.429 55.5024 354.002 55.5024C358.011 55.5024 361.341 53.3277 363.04 49.6921L368.953 50.8474C366.574 57.0995 360.9 60.8371 354.07 60.8371C344.08 60.8371 337.115 54.3811 337.115 43.3722C337.115 32.3632 344.25 25.8731 353.867 25.8731C363.007 25.8731 369.632 31.3772 369.666 42.7264ZM353.9 30.8338C348.701 30.8338 344.793 33.62 343.774 39.4982H363.108C362.564 33.6538 358.861 30.8338 353.9 30.8338Z" fill="url(#paint1_linear_53_617)"/>
</g>
<defs>
<linearGradient id="paint0_linear_53_617" x1="0" y1="0" x2="83.3333" y2="0" gradientUnits="userSpaceOnUse">
<stop stop-color="#FBB040"/>
<stop offset="1" stop-color="#F9ED32"/>
</linearGradient>
<linearGradient id="paint1_linear_53_617" x1="103" y1="8" x2="369.667" y2="8" gradientUnits="userSpaceOnUse">
<stop stop-color="#FBB040"/>
<stop offset="1" stop-color="#F9ED32"/>
</linearGradient>
<clipPath id="clip0_53_617">
<rect width="369.667" height="83.1358" fill="white"/>
</clipPath>
</defs>
</svg>
