<svg width="84" height="84" viewBox="0 0 84 84" fill="none" xmlns="http://www.w3.org/2000/svg">
<path d="M80.6418 41.5183C80.2831 49.5876 72.7159 54.4202 67.0853 59.0377C61.634 63.5207 57.8772 69.1692 53.0805 74.2798C46.7236 81.0132 39.0398 82.5285 31.9029 75.9385C26.8013 71.2314 23.3046 65.1076 18.0236 60.5529C12.7427 55.9982 4.99611 51.587 3.08637 44.4322C0.898677 36.2552 8.31351 30.3646 13.9441 25.8547C19.5747 21.3449 23.6811 16.4136 28.2807 11.034C33.5795 4.75789 40.6806 -0.415463 48.6603 4.87444C55.2592 9.24086 58.9801 16.9426 64.8886 22.1518C70.9406 27.4776 80.2383 32.5075 80.6418 41.5183C80.7225 43.2397 83.4122 43.2487 83.3316 41.5183C82.946 32.9737 76.0243 27.7914 69.8826 22.8332C63.0865 17.3102 58.72 9.65329 52.0494 4.10337C46.3022 -0.684441 39.1384 -1.51827 32.8802 2.85711C25.8599 7.77941 21.7624 15.8667 15.2442 21.3538C9.50598 26.1596 1.76837 31.0102 0.244163 38.945C-1.31591 47.113 4.88852 53.2278 10.6447 57.9528C13.8724 60.6426 17.2257 63.0993 20.032 66.2194C22.8383 69.3396 25.4116 73.0066 28.3524 76.1447C33.4182 81.5333 40.3309 85.1914 47.6381 81.865C56.111 77.9648 60.3698 68.3712 67.2198 62.4537C73.9263 56.6259 82.8922 51.3808 83.3316 41.5183C83.4122 39.7878 80.7225 39.7878 80.6418 41.5183Z" fill="url(#paint0_linear_55_618)"/>
<defs>
<linearGradient id="paint0_linear_55_618" x1="0" y1="0" x2="83.3333" y2="0" gradientUnits="userSpaceOnUse">
<stop stop-color="#FBB040"/>
<stop offset="1" stop-color="#F9ED32"/>
</linearGradient>
</defs>
</svg>
